<svg width="84" height="25" viewBox="0 0 84 25" fill="none" xmlns="http://www.w3.org/2000/svg">
<g clip-path="url(#clip0_72_70)">
<path fill-rule="evenodd" clip-rule="evenodd" d="M4.746 17.6798L4.353 19.1428L3.569 21.6798H5.989L4.746 17.6798ZM6.031 15.4248L9.545 24.8998H7.004L6.531 23.3828H3.015L2.542 24.8998H0L3.542 15.4248H6.031ZM15.494 15.4248H18.036L14.723 24.8998H12.29L9.018 15.4248H11.56L13.534 22.1618L15.494 15.4248ZM22.26 17.6798L21.868 19.1428L21.084 21.6798H23.504L22.26 17.6798ZM23.545 15.4248L27.06 24.8998H24.518L24.044 23.3828H20.529L20.056 24.8998H17.514L21.056 15.4248H23.545ZM28.499 15.4248H30.838L32.906 18.9138L34.339 21.5038L34.231 15.4238H36.516V24.8998H34.177L32.392 21.9068L30.715 18.9408L30.783 24.8998H28.498V15.4248M38.901 15.4248H46.607V17.2768L41.402 23.0348H46.58V24.8998H38.455V23.1278L43.741 17.2768H38.901V15.4248ZM52.535 17.6798L52.143 19.1428L51.359 21.6798H53.779L52.536 17.6808L52.535 17.6798ZM53.819 15.4248L57.334 24.8998H54.793L54.32 23.3828H50.805L50.331 24.8998H47.789L51.331 15.4248H53.819Z" fill="white"/>
<path fill-rule="evenodd" clip-rule="evenodd" d="M62.4661 15.3762H65.7481V24.9002H62.4661V15.3762ZM68.4641 12.6132H71.7471V24.9002H68.4641V12.6132ZM74.4641 9.15218H77.7481V24.9002H74.4641V9.15218ZM80.4691 0.15918H83.7521V24.9002H80.4691V0.15918Z" fill="#00C281"/>
</g>
<defs>
<clipPath id="clip0_72_70">
<rect width="84" height="25" fill="white"/>
</clipPath>
</defs>
</svg>
