<svg width="1015" height="111" viewBox="0 0 1015 111" fill="none" xmlns="http://www.w3.org/2000/svg">
<g clip-path="url(#clip0_73_74)">
<path fill-rule="evenodd" clip-rule="evenodd" d="M564.106 0.00683594V86.3858L522.063 0.00683594H493.167V108.553H513.349V21.2578L555.852 108.553H584.288V0.00683594H564.106ZM632.239 28.1368C608.695 28.1368 592.03 44.9548 592.03 69.5688C592.03 94.1818 608.695 111 632.239 111C655.783 111 672.447 94.1818 672.447 69.5688C672.447 44.9548 655.783 28.1368 632.239 28.1368ZM632.239 44.3418C644.623 44.3418 652.878 54.4318 652.878 69.5688C652.878 84.8568 644.623 94.6398 632.239 94.6398C619.855 94.6398 611.601 84.8568 611.601 69.5688C611.601 54.4318 619.855 44.3418 632.239 44.3418ZM1014.85 45.1078V30.5838H1000.79V6.73384H981.524V30.5838H969.292V45.1078H981.524V84.3968C981.524 100.604 988.098 108.553 1008.89 108.553H1014.85V92.5008H1010.27C1003.39 92.5008 1000.79 89.9008 1000.79 83.4808V45.1078H1014.85ZM719.788 29.5128C707.557 29.5128 701.594 35.4758 698.078 44.1898V30.5838H680.19V108.553H699.454V70.0268C699.454 55.9618 706.334 47.7068 720.093 47.7068H724.068V29.5128H719.788ZM783.083 0.00783594V39.7568C778.037 32.5718 770.24 28.4438 759.385 28.4438C739.511 28.4438 724.833 44.3428 724.833 69.7218C724.833 94.7938 739.204 110.846 759.079 110.846C771.158 110.846 779.413 105.649 784.459 96.9348V108.553H802.346V0.00783594H783.083ZM763.666 94.4878C751.741 94.4878 744.25 84.5518 744.25 69.7218C744.25 54.5858 752.352 44.9538 763.973 44.9538C775.132 44.9538 783.848 54.1278 783.848 69.7218C783.848 84.8558 775.438 94.4878 763.666 94.4878ZM856.008 28.1368C844.847 28.1368 836.897 33.1828 832.31 40.8268V30.5838H814.423V108.553H833.685V61.3118C833.685 51.5278 840.413 44.8018 849.74 44.8018C859.37 44.8018 864.569 50.4588 864.569 60.7018V108.553H883.832V55.1978C883.832 39.6038 874.201 28.1368 856.008 28.1368ZM967.765 67.1228C967.765 43.2718 953.546 28.1378 930.613 28.1378C906.151 28.1378 891.628 46.0238 891.628 70.0268C891.628 94.7938 906.763 111 931.837 111C948.042 111 963.178 102.592 967.153 83.9398H948.194C945.137 91.8878 938.257 94.9458 931.378 94.9458C918.842 94.9458 912.114 86.6918 910.585 74.6128H967.459C967.611 73.0848 967.765 69.4158 967.765 67.1228ZM930.308 43.2718C941.162 43.2718 947.584 50.1518 948.5 60.8548H911.043C913.185 50.4578 919.605 43.2718 930.308 43.2718ZM378.097 0.00683594L246.584 108.553H310.649L442.161 0.00683594H378.097ZM131.512 0.00683594L0 108.553H64.063L195.576 0.00683594H131.512ZM195.576 108.554L246.584 108.553V0.00683594H195.576V108.554Z" fill="white"/>
</g>
<defs>
<clipPath id="clip0_73_74">
<rect width="1015" height="111" fill="white"/>
</clipPath>
</defs>
</svg>
